<?xml version="1.0" encoding="utf-8"?>
<!-- Generator: Adobe Illustrator 25.4.1, SVG Export Plug-In . SVG Version: 6.00 Build 0)  -->
<svg version="1.1" id="Livello_1" xmlns="http://www.w3.org/2000/svg" xmlns:xlink="http://www.w3.org/1999/xlink" x="0px" y="0px"
	 viewBox="0 0 1270.7 779" enable-background="new 0 0 1270.7 779" xml:space="preserve">
<path fill-rule="evenodd" clip-rule="evenodd" d="M1466-55.6c-1.2-1.6-0.5-4.2,1.3-5.1c1,1.6,0.5,3.9-1.1,4.9L1466-55.6z"/>
<path fill="none" stroke="#000000" stroke-linecap="round" stroke-miterlimit="10" d="M1466-55.6c-1.2-1.6-0.5-4.2,1.3-5.1
	c1,1.6,0.5,3.9-1.1,4.9L1466-55.6z"/>
<path fill-rule="evenodd" clip-rule="evenodd" d="M1468.3-222.8c0.8-0.3,1.8-0.1,2.4,0.4c0.9,1.5-1.8,3.3-2.9,2
	c-0.2-0.9-0.1-1.8,0.4-2.5L1468.3-222.8z"/>
<path fill="none" stroke="#000000" stroke-linecap="round" stroke-miterlimit="10" d="M1468.3-222.8c0.8-0.3,1.8-0.1,2.4,0.4
	c0.9,1.5-1.8,3.3-2.9,2c-0.2-0.9-0.1-1.8,0.4-2.5L1468.3-222.8z"/>
<path fill-rule="evenodd" clip-rule="evenodd" d="M1357.3,778.1c-0.6,0.5-1.5-0.4-1.4-1.1c0.1-0.7,0.8-1.3,1.4-1.7
	C1358.4,775.7,1358.4,777.7,1357.3,778.1L1357.3,778.1z"/>
<path fill="none" stroke="#000000" stroke-linecap="round" stroke-miterlimit="10" d="M1357.3,778.1c-0.6,0.5-1.5-0.4-1.4-1.1
	c0.1-0.7,0.8-1.3,1.4-1.7C1358.4,775.7,1358.4,777.7,1357.3,778.1L1357.3,778.1z"/>
<path fill-rule="evenodd" clip-rule="evenodd" d="M1447.4-106.1c-0.6-0.8-1.1-1.5-1.7-2.3c1.1-1.1,3.2,1.1,2,2.1L1447.4-106.1z"/>
<path fill="none" stroke="#000000" stroke-linecap="round" stroke-miterlimit="10" d="M1447.4-106.1c-0.6-0.8-1.1-1.5-1.7-2.3
	c1.1-1.1,3.2,1.1,2,2.1L1447.4-106.1z"/>
<path fill-rule="evenodd" clip-rule="evenodd" d="M1262.2,488.2c-0.6-1-0.1-2.5,1.1-2.9C1264.3,486.1,1263.6,488.2,1262.2,488.2
	L1262.2,488.2z"/>
<path fill="none" stroke="#000000" stroke-linecap="round" stroke-miterlimit="10" d="M1262.2,488.2c-0.6-1-0.1-2.5,1.1-2.9
	C1264.3,486.1,1263.6,488.2,1262.2,488.2L1262.2,488.2z"/>
<path fill-rule="evenodd" clip-rule="evenodd" d="M1247.4,428.1c0.8,0.3,1,1.6,0.3,2.1c-0.7,0.5-1.9-0.1-1.9-1
	c0.4-0.4,0.9-0.9,1.3-1.3L1247.4,428.1z"/>
<path fill="none" stroke="#000000" stroke-linecap="round" stroke-miterlimit="10" d="M1247.4,428.1c0.8,0.3,1,1.6,0.3,2.1
	c-0.7,0.5-1.9-0.1-1.9-1c0.4-0.4,0.9-0.9,1.3-1.3L1247.4,428.1z"/>
<path fill-rule="evenodd" clip-rule="evenodd" d="M1462.1,795.1c0.4-1,0.8-1.9,1.1-2.9c0.5,0.9,1,1.7,1.5,2.6
	c-0.8,0.2-1.6,0.4-2.5,0.5L1462.1,795.1z"/>
<path fill="none" stroke="#000000" stroke-linecap="round" stroke-miterlimit="10" d="M1462.1,795.1c0.4-1,0.8-1.9,1.1-2.9
	c0.5,0.9,1,1.7,1.5,2.6c-0.8,0.2-1.6,0.4-2.5,0.5L1462.1,795.1z"/>
<path fill-rule="evenodd" clip-rule="evenodd" d="M1254.2,612.2c0.7,0.6,0.6,1.9-0.2,2.3c-0.8,0.5-1.9,0-2.2-0.9
	c0.8-0.5,1.6-1,2.5-1.5L1254.2,612.2z"/>
<path fill="none" stroke="#000000" stroke-linecap="round" stroke-miterlimit="10" d="M1254.2,612.2c0.7,0.6,0.6,1.9-0.2,2.3
	c-0.8,0.5-1.9,0-2.2-0.9c0.8-0.5,1.6-1,2.5-1.5L1254.2,612.2z"/>
<path fill-rule="evenodd" clip-rule="evenodd" d="M1382.2,977c0.5-0.6,1.4,0.6,0.9,1.1s-1.4,0.4-2.1,0.2s-1.5-0.7-2.2-0.5
	c1-0.7,2.3-0.9,3.5-0.6L1382.2,977z"/>
<path fill="none" stroke="#000000" stroke-linecap="round" stroke-miterlimit="10" d="M1382.2,977c0.5-0.6,1.4,0.6,0.9,1.1
	s-1.4,0.4-2.1,0.2s-1.5-0.7-2.2-0.5c1-0.7,2.3-0.9,3.5-0.6L1382.2,977z"/>
<g>
	<path fill-rule="evenodd" clip-rule="evenodd" d="M983.3,371.1c0.9,1.2,0.4,3.3-1,3.9c-0.5-0.8-1-1.6-1.5-2.4
		C981.7,372.1,982.5,371.6,983.3,371.1L983.3,371.1z"/>
	<path fill="none" stroke="#000000" stroke-linecap="round" stroke-miterlimit="10" d="M983.3,371.1c0.9,1.2,0.4,3.3-1,3.9
		c-0.5-0.8-1-1.6-1.5-2.4C981.7,372.1,982.5,371.6,983.3,371.1L983.3,371.1z"/>
	<path fill-rule="evenodd" clip-rule="evenodd" d="M949.7,336.6c-0.4,1.2-2.4,1.2-2.8,0C947.3,335.4,949.3,335.5,949.7,336.6
		L949.7,336.6z"/>
	<path fill="none" stroke="#000000" stroke-linecap="round" stroke-miterlimit="10" d="M949.7,336.6c-0.4,1.2-2.4,1.2-2.8,0
		C947.3,335.4,949.3,335.5,949.7,336.6L949.7,336.6z"/>
	<path fill-rule="evenodd" clip-rule="evenodd" d="M684.3,263.3c1,2,1,4.4,0.9,6.6c-0.2,4.1-0.6,8.3-2.3,12
		c-1.4,3.1-3.6,5.8-5.8,8.4c-3,3.6-6,7.2-9.1,10.9c0.5-12.8-1.2-25.7-5-38c3.5-2,7.1-4.1,11-4.5C678,258.1,682.5,259.7,684.3,263.3z
		"/>
	<path fill="none" stroke="#000000" stroke-linecap="round" stroke-miterlimit="10" d="M684.3,263.3c1,2,1,4.4,0.9,6.6
		c-0.2,4.1-0.6,8.3-2.3,12c-1.4,3.1-3.6,5.8-5.8,8.4c-3,3.6-6,7.2-9.1,10.9c0.5-12.8-1.2-25.7-5-38c3.5-2,7.1-4.1,11-4.5
		C678,258.1,682.5,259.7,684.3,263.3z"/>
	<path fill-rule="evenodd" clip-rule="evenodd" d="M826.3,541.1c0.8-0.2,1.7-0.1,2.5,0.4c-0.5,0.7-1.1,1.5-2,1.5
		c-0.8,0-1.3-1.5-0.4-1.6L826.3,541.1z"/>
	<path fill="none" stroke="#000000" stroke-linecap="round" stroke-miterlimit="10" d="M826.3,541.1c0.8-0.2,1.7-0.1,2.5,0.4
		c-0.5,0.7-1.1,1.5-2,1.5c-0.8,0-1.3-1.5-0.4-1.6L826.3,541.1z"/>
	<path fill-rule="evenodd" clip-rule="evenodd" d="M507.8,338.2c-1.6-21.2-4.3-42.4-8.3-63.4c-1.7-9.1-4.9-19.6-13.6-22.5
		c-8.2-2.7-16.7,2.9-23.2,8.5c-28.9,24.6-52.4,55.6-67.4,90.4c-6.2,14.4-11,29.4-14.3,44.7c-4.6,21.5-6.1,44.4,1.5,65
		c2.3,6.3,5.9,12.7,12,15.3c10,4.3,20.9-3.3,28.8-10.7c28.4-26.3,53.5-56.2,74.5-88.8c3.9-6,7.7-12.2,9.3-19.2
		C508.6,351.2,508.3,344.6,507.8,338.2z M652.2,378c2.7-4,5.4-8.1,8.2-12.1c3.1,6.9,6.2,14.1,5.6,21.5c-0.6,7.5-6.3,15.1-13.8,15.1
		c-9.9,0-14.9-11.7-17.4-21.3c-3.1-11.8-6.1-23.7-9.2-35.5c-8.2,24.4-21.1,47.3-37.8,67c-12.2,14.4-30.7,28.2-48.5,22
		c-9.7-3.4-16.7-12.2-21-21.6c-4.2-9.4-6.2-19.6-9.4-29.5c-21.1,33.9-47,64.8-76.8,91.4c-7.2,6.5-15.1,12.9-24.7,14.8
		c-15.4,3-31.1-7.5-38.4-21.4c-7.3-13.9-7.9-30.3-6.7-45.9c5-65.5,38.8-127.2,87.6-171.1c11-9.9,25-19.5,39.3-16.1
		c9.5,2.3,17,10.2,21.1,19.1c4.2,8.9,5.6,18.8,7,28.5c2.4,16.9,4.8,33.7,7.3,50.6c50.9-93.7,71.1-200.8,83.2-306.7
		c1-8.9,3.8-19.9,12.6-21.8c6.2,11.8,4.3,26,2.2,39.2c-14.8,91.6-30.1,184.8-72.4,267.3c-7.7,15-16.4,29.8-21,46.1
		c-4.6,16.3-4.6,34.7,4.3,49.1c3.3,5.3,8.1,10.1,14.3,11.4c9.6,2,18.5-5.3,25.2-12.5c27.9-30.1,45.8-69.2,50.3-109.9
		c0.8-7.1,12-7.9,16.6-2.5c4.6,5.4,4.5,13.2,4.4,20.3C644.2,335.2,646.8,357,652.2,378"/>
	<path fill="none" stroke="#000000" stroke-linecap="round" stroke-miterlimit="10" d="M507.8,338.2c-1.6-21.2-4.3-42.4-8.3-63.4
		c-1.7-9.1-4.9-19.6-13.6-22.5c-8.2-2.7-16.7,2.9-23.2,8.5c-28.9,24.6-52.4,55.6-67.4,90.4c-6.2,14.4-11,29.4-14.3,44.7
		c-4.6,21.5-6.1,44.4,1.5,65c2.3,6.3,5.9,12.7,12,15.3c10,4.3,20.9-3.3,28.8-10.7c28.4-26.3,53.5-56.2,74.5-88.8
		c3.9-6,7.7-12.2,9.3-19.2C508.6,351.2,508.3,344.6,507.8,338.2z M652.2,378c2.7-4,5.4-8.1,8.2-12.1c3.1,6.9,6.2,14.1,5.6,21.5
		c-0.6,7.5-6.3,15.1-13.8,15.1c-9.9,0-14.9-11.7-17.4-21.3c-3.1-11.8-6.1-23.7-9.2-35.5c-8.2,24.4-21.1,47.3-37.8,67
		c-12.2,14.4-30.7,28.2-48.5,22c-9.7-3.4-16.7-12.2-21-21.6c-4.2-9.4-6.2-19.6-9.4-29.5c-21.1,33.9-47,64.8-76.8,91.4
		c-7.2,6.5-15.1,12.9-24.7,14.8c-15.4,3-31.1-7.5-38.4-21.4c-7.3-13.9-7.9-30.3-6.7-45.9c5-65.5,38.8-127.2,87.6-171.1
		c11-9.9,25-19.5,39.3-16.1c9.5,2.3,17,10.2,21.1,19.1c4.2,8.9,5.6,18.8,7,28.5c2.4,16.9,4.8,33.7,7.3,50.6
		c50.9-93.7,71.1-200.8,83.2-306.7c1-8.9,3.8-19.9,12.6-21.8c6.2,11.8,4.3,26,2.2,39.2c-14.8,91.6-30.1,184.8-72.4,267.3
		c-7.7,15-16.4,29.8-21,46.1c-4.6,16.3-4.6,34.7,4.3,49.1c3.3,5.3,8.1,10.1,14.3,11.4c9.6,2,18.5-5.3,25.2-12.5
		c27.9-30.1,45.8-69.2,50.3-109.9c0.8-7.1,12-7.9,16.6-2.5c4.6,5.4,4.5,13.2,4.4,20.3C644.2,335.2,646.8,357,652.2,378"/>
	<path fill-rule="evenodd" clip-rule="evenodd" d="M737.8,311.8c54.4-17.3,94.9-71.5,96-128.6c0.1-7.4-0.3-14.9-3-21.8
		c-1.2-3.3-3-6.4-5.7-8.6c-6.2-5-15.7-3.6-22.2,1.1c-6.4,4.7-10.4,12-14,19c-18.2,35.3-33.3,72.3-45.1,110.2
		C740.9,292.5,738.2,302.1,737.8,311.8z M602.2,565.1c-74.8,15.1-149.1,33.7-220.9,59.7c-32.9,11.9-65.2,25.4-99,34.6
		c-40.7,11.1-82.9,15.8-124.2,24.3s-82.8,21.4-116.6,46.5c76.2-1.2,150.1-24,222.9-46.7C378.4,648.1,492.7,612.5,602.2,565.1
		 M603.8,550.1c61.6-13.6,120.3-37.7,178.1-62.9c83.8-36.7,167-76.4,240.8-130.4c-35.6,12.3-75.9,10.1-109.9-5.8
		c-10.3-4.8-24.7-10-31.3-0.8c-9.4,13.1-27,19.8-42.8,16.1s-28.6-17.4-31.3-33.3c-11,22.3-26.9,42.2-46.2,57.8
		c-5.6,4.5-11.8,8.8-19,9.5c-12.3,1.3-23.5-8.8-27.6-20.4c-4.1-11.6-2.7-24.4-0.9-36.7c8.8-58.5,26.9-115.7,53.4-168.7
		c11-22,30.5-46.7,54.5-41c21.1,5,29.6,30.7,29.4,52.4c-0.5,66.1-51.9,128.2-116.7,141c-4.4,12.1-8.8,25.6-3.9,37.5
		c4.9,11.9,23.8,17.6,30.5,6.6c14.1-23,28.1-46,42.2-69c1.8-3,3.8-6.1,6.9-7.7c9.9-5.1,19.3,8.8,19.5,20c0.3,11.2-1.6,24.7,7.3,31.4
		c12.2,9.1,27.8-4.8,37.6-16.5c9.8-11.6,30.1-21.5,37.7-8.3c14,24.3,47.7,28.2,75.4,23.8c52.8-8.3,102.3-36.7,136.2-78.1
		c6.1-7.5,19.5,1.2,19.2,10.9c-0.4,9.7-8.4,17.1-15.9,23.2c-117.8,96.4-251.9,172.8-394.9,224.8c166.7-20.7,336.8-14,501.3,19.8
		c11,2.3,24.9,9.1,22.1,20c-177.5-36.4-361.2-42.6-540.7-18.1c-23.7,3.2-47.6,7-69.6,16.3C446.6,647.3,243.9,732,29.1,750.4
		c-3.7,0.3-7.7,0.6-10.9-1.3c-9.6-5.6-2.5-20.4,5.9-27.6c52.8-45.1,127.8-49,195.6-63.9c95.1-20.9,183.2-66.7,278.2-87.7
		C533,562.1,568.8,557.8,603.8,550.1"/>
	<path fill="none" stroke="#000000" stroke-linecap="round" stroke-miterlimit="10" d="M737.8,311.8c54.4-17.3,94.9-71.5,96-128.6
		c0.1-7.4-0.3-14.9-3-21.8c-1.2-3.3-3-6.4-5.7-8.6c-6.2-5-15.7-3.6-22.2,1.1c-6.4,4.7-10.4,12-14,19
		c-18.2,35.3-33.3,72.3-45.1,110.2C740.9,292.5,738.2,302.1,737.8,311.8z M602.2,565.1c-74.8,15.1-149.1,33.7-220.9,59.7
		c-32.9,11.9-65.2,25.4-99,34.6c-40.7,11.1-82.9,15.8-124.2,24.3s-82.8,21.4-116.6,46.5c76.2-1.2,150.1-24,222.9-46.7
		C378.4,648.1,492.7,612.5,602.2,565.1 M603.8,550.1c61.6-13.6,120.3-37.7,178.1-62.9c83.8-36.7,167-76.4,240.8-130.4
		c-35.6,12.3-75.9,10.1-109.9-5.8c-10.3-4.8-24.7-10-31.3-0.8c-9.4,13.1-27,19.8-42.8,16.1s-28.6-17.4-31.3-33.3
		c-11,22.3-26.9,42.2-46.2,57.8c-5.6,4.5-11.8,8.8-19,9.5c-12.3,1.3-23.5-8.8-27.6-20.4c-4.1-11.6-2.7-24.4-0.9-36.7
		c8.8-58.5,26.9-115.7,53.4-168.7c11-22,30.5-46.7,54.5-41c21.1,5,29.6,30.7,29.4,52.4c-0.5,66.1-51.9,128.2-116.7,141
		c-4.4,12.1-8.8,25.6-3.9,37.5c4.9,11.9,23.8,17.6,30.5,6.6c14.1-23,28.1-46,42.2-69c1.8-3,3.8-6.1,6.9-7.7
		c9.9-5.1,19.3,8.8,19.5,20c0.3,11.2-1.6,24.7,7.3,31.4c12.2,9.1,27.8-4.8,37.6-16.5c9.8-11.6,30.1-21.5,37.7-8.3
		c14,24.3,47.7,28.2,75.4,23.8c52.8-8.3,102.3-36.7,136.2-78.1c6.1-7.5,19.5,1.2,19.2,10.9c-0.4,9.7-8.4,17.1-15.9,23.2
		c-117.8,96.4-251.9,172.8-394.9,224.8c166.7-20.7,336.8-14,501.3,19.8c11,2.3,24.9,9.1,22.1,20c-177.5-36.4-361.2-42.6-540.7-18.1
		c-23.7,3.2-47.6,7-69.6,16.3C446.6,647.3,243.9,732,29.1,750.4c-3.7,0.3-7.7,0.6-10.9-1.3c-9.6-5.6-2.5-20.4,5.9-27.6
		c52.8-45.1,127.8-49,195.6-63.9c95.1-20.9,183.2-66.7,278.2-87.7C533,562.1,568.8,557.8,603.8,550.1"/>
</g>
</svg>